<svg width="32" height="32" viewBox="0 0 32 32" fill="none" xmlns="http://www.w3.org/2000/svg">
<path d="M18.83 16.0003L31.4136 3.41621C32.1954 2.63504 32.1954 1.36755 31.4136 0.586379C30.6318 -0.19546 29.3657 -0.19546 28.5839 0.586379L16.0003 13.1705L3.41606 0.586379C2.63426 -0.19546 1.36816 -0.19546 0.586354 0.586379C-0.195451 1.36755 -0.195451 2.63504 0.586354 3.41621L13.1706 16.0003L0.586354 28.5845C-0.195451 29.3656 -0.195451 30.6331 0.586354 31.4143C0.977257 31.8045 1.48957 32 2.00121 32C2.51285 32 3.02516 31.8045 3.41606 31.4136L16.0003 18.8295L28.5839 31.4136C28.9748 31.8045 29.4871 32 29.9988 32C30.5104 32 31.0227 31.8045 31.4136 31.4136C32.1954 30.6324 32.1954 29.365 31.4136 28.5838L18.83 16.0003Z" fill="white"/>
</svg>
