<svg width="35" height="69" viewBox="0 0 35 69" fill="none" xmlns="http://www.w3.org/2000/svg">
<g clip-path="url(#clip0)">
<path d="M17.6318 0.253218C17.7019 0.123523 17.5836 -0.0247007 17.4292 0.00412044C16.1255 0.244983 12.7842 2.7236 12.7842 8.10081C12.7842 13.478 17.3811 16.2593 20.8548 21.2247C24.3686 26.2479 22.024 30.6246 20.1107 32.9879C19.7717 33.4058 20.0545 33.7723 20.5419 33.6858C22.7782 33.2864 29.1781 30.5258 29.1781 24.1213C29.1781 20.2119 28.7689 17.7724 22.9667 12.6381C20.9129 10.8203 16.2158 7.29176 16.4424 4.01644C16.5086 3.04476 17.0241 1.36077 17.6318 0.253218Z" fill="#222222"/>
<path d="M6.92338 40.9674C7.15002 40.85 7.41275 41.0538 7.32852 41.2803C6.72483 42.9293 5.45126 47.6765 8.30726 52.8355C10.5997 56.9775 15.6538 59.3615 21.8512 58.1407C22.128 58.0872 22.3125 58.396 22.1139 58.5812C20.7621 59.835 17.2483 62.4865 11.8793 62.2724C4.86362 61.9924 0 57.6301 0 51.2771C0 45.6302 4.79743 42.079 6.92338 40.9674Z" fill="#222222"/>
<path d="M15.2763 18.5836C15.6012 18.3324 15.4027 17.8445 14.9795 17.8487C12.2077 17.8816 6.19088 18.7215 4.29758 25.1322C1.80861 33.5624 11.1427 41.7826 14.4801 45.2906C17.8174 48.7985 26.4416 55.6827 26.4416 62.3321C26.4416 65.6198 24.8752 67.3799 23.6518 68.2528C23.2988 68.506 23.5094 69.0269 23.9546 69.0001C27.2438 68.8004 34.1472 67.4458 34.9534 59.6373C35.5972 53.4058 29.4841 47.3492 23.1343 40.9344C19.6084 37.373 11.596 29.3236 12.3301 24.4014C12.8315 21.0478 14.2254 19.3947 15.2763 18.5836Z" fill="#222222"/>
</g>
<defs>
<clipPath id="clip0">
<rect width="35" height="69" fill="white"/>
</clipPath>
</defs>
</svg>
