<svg width="66" height="126" viewBox="0 0 66 126" fill="none" xmlns="http://www.w3.org/2000/svg">
<g clip-path="url(#clip0)" filter="url(#filter0_d)">
<path d="M33.2177 0.433181C33.334 0.211383 33.1379 -0.0421003 32.882 0.00718808C30.7217 0.419098 25.1846 4.6579 25.1846 13.8537C25.1846 23.0495 32.8022 27.8059 38.5587 36.2975C44.3816 44.8878 40.4964 52.3726 37.3256 56.4143C36.764 57.1289 37.2326 57.7556 38.0402 57.6077C41.746 56.9248 52.3516 52.2036 52.3516 41.251C52.3516 34.5654 51.6736 30.3935 42.0584 21.6131C38.6551 18.5044 30.8712 12.4701 31.2468 6.86884C31.3565 5.20712 32.2106 2.32726 33.2177 0.433181Z" fill="#96460A" fill-opacity="0.35"/>
<path d="M15.473 70.0601C15.8486 69.8594 16.284 70.2079 16.1444 70.5952C15.144 73.4152 13.0335 81.5337 17.7663 90.3563C21.5652 97.4398 29.9406 101.517 40.2105 99.4289C40.6692 99.3374 40.975 99.8655 40.6459 100.182C38.4058 102.326 32.5829 106.861 23.6856 106.495C12.0597 106.016 4 98.5558 4 87.6912C4 78.0342 11.95 71.9612 15.473 70.0601Z" fill="#96460A" fill-opacity="0.35"/>
<path d="M29.3155 31.7808C29.854 31.3513 29.5249 30.5169 28.8237 30.524C24.2304 30.5803 14.2597 32.0167 11.1222 42.9799C6.99762 57.3967 22.4656 71.4545 27.9961 77.4536C33.5265 83.4527 47.818 95.2256 47.818 106.597C47.818 112.22 45.2223 115.23 43.1949 116.722C42.6099 117.155 42.9589 118.046 43.6967 118C49.1474 117.659 60.5872 115.342 61.9233 101.989C62.9902 91.3318 52.8599 80.9742 42.3374 70.004C36.4945 63.9134 23.2168 50.1478 24.4332 41.73C25.2641 35.995 27.574 33.1679 29.3155 31.7808Z" fill="#96460A" fill-opacity="0.35"/>
</g>
<defs>
<filter id="filter0_d" x="0" y="0" width="66" height="126" filterUnits="userSpaceOnUse" color-interpolation-filters="sRGB">
<feFlood flood-opacity="0" result="BackgroundImageFix"/>
<feColorMatrix in="SourceAlpha" type="matrix" values="0 0 0 0 0 0 0 0 0 0 0 0 0 0 0 0 0 0 127 0"/>
<feOffset dy="4"/>
<feGaussianBlur stdDeviation="2"/>
<feColorMatrix type="matrix" values="0 0 0 0 0 0 0 0 0 0 0 0 0 0 0 0 0 0 0.25 0"/>
<feBlend mode="normal" in2="BackgroundImageFix" result="effect1_dropShadow"/>
<feBlend mode="normal" in="SourceGraphic" in2="effect1_dropShadow" result="shape"/>
</filter>
<clipPath id="clip0">
<rect width="58" height="118" fill="white" transform="translate(4)"/>
</clipPath>
</defs>
</svg>
